<svg width="34" height="34" viewBox="0 0 34 34" fill="none" xmlns="http://www.w3.org/2000/svg">
<path d="M34 17C34 26.3888 26.3888 34 17 34C7.61116 34 0 26.3888 0 17C0 7.61116 7.61116 0 17 0C26.3888 0 34 7.61116 34 17Z" fill="#E5E8EB"/>
<path fill-rule="evenodd" clip-rule="evenodd" d="M11.6629 8.36719C11.8254 8.36719 11.9523 8.40273 12.0691 8.47891C12.1656 8.54492 12.2926 8.66172 12.3484 8.73789C12.4246 8.84453 12.4551 8.95625 12.4551 9.1543C12.4551 9.34727 12.4246 9.46406 12.3535 9.56563C12.2977 9.63672 12.1859 9.74844 12.1098 9.80937C12.0031 9.89062 11.8914 9.91602 11.6781 9.91602C11.4598 9.91602 11.348 9.88555 11.2211 9.8043C11.1348 9.73828 11.023 9.61133 10.9773 9.525C10.9316 9.43359 10.8961 9.2457 10.8961 9.10352C10.8961 8.93594 10.9316 8.80898 10.9977 8.72266C11.0484 8.65156 11.1703 8.54492 11.2617 8.48398C11.3768 8.40612 11.5105 8.36719 11.6629 8.36719ZM15.7254 8.36719C15.8879 8.36719 16.0148 8.40273 16.1316 8.47891C16.2281 8.54492 16.3551 8.66172 16.4109 8.73789C16.4871 8.84453 16.5176 8.95625 16.5176 9.1543C16.5176 9.34727 16.4871 9.46406 16.416 9.56563C16.3602 9.63672 16.2484 9.74844 16.1723 9.80937C16.0656 9.89062 15.9539 9.91602 15.7406 9.91602C15.5223 9.91602 15.4105 9.88555 15.2836 9.8043C15.1973 9.73828 15.0855 9.61133 15.0398 9.525C14.9941 9.43359 14.9586 9.2457 14.9586 9.10352C14.9586 8.93594 14.9941 8.80898 15.0602 8.72266C15.1109 8.65156 15.2328 8.54492 15.3242 8.48398C15.4393 8.40612 15.573 8.36719 15.7254 8.36719ZM19.6355 8.36719C19.798 8.36719 19.925 8.40273 20.0418 8.47891C20.1383 8.54492 20.2652 8.66172 20.3211 8.73789C20.3973 8.84453 20.4277 8.95625 20.4277 9.1543C20.4277 9.34727 20.3973 9.46406 20.3262 9.56563C20.2703 9.63672 20.1586 9.74844 20.0824 9.80937C19.9758 9.89062 19.8641 9.91602 19.6508 9.91602C19.4324 9.91602 19.3207 9.88555 19.1938 9.8043C19.1074 9.73828 18.9957 9.61133 18.95 9.525C18.9043 9.43359 18.8687 9.2457 18.8687 9.10352C18.8687 8.93594 18.9043 8.80898 18.9703 8.72266C19.0211 8.65156 19.143 8.54492 19.2344 8.48398C19.3495 8.40612 19.4832 8.36719 19.6355 8.36719ZM14.9688 11.7797C15.5172 11.7746 16.0605 11.8 16.3906 11.8457C16.6852 11.8914 17.0711 11.9574 17.2539 12.0031C17.4367 12.0488 17.8227 12.1605 18.1172 12.2621C18.4117 12.3586 18.8992 12.5617 19.209 12.709C19.5187 12.8562 19.9605 13.1102 20.1992 13.2676C20.4379 13.425 20.7324 13.6383 20.8594 13.7398C20.9863 13.8363 21.2961 14.141 21.5551 14.4051C22.0223 14.8926 22.0223 14.8926 22.1391 14.8012C22.2051 14.7504 22.393 14.6184 22.5605 14.5066C22.7281 14.3949 22.9922 14.2578 23.1445 14.202C23.2969 14.1461 23.5355 14.075 23.6777 14.0496C23.8148 14.0242 24.0434 14.0039 24.1855 14.0039C24.3227 14.0039 24.5664 14.0242 24.7188 14.0547C24.8711 14.0852 25.1809 14.1969 25.4043 14.3035C25.7191 14.4559 25.8816 14.5777 26.1355 14.8469C26.3336 15.0602 26.5164 15.3191 26.6027 15.502C26.6738 15.6695 26.7652 15.9285 26.7957 16.0758C26.8262 16.218 26.8516 16.4922 26.8516 16.6852C26.8516 16.873 26.816 17.1727 26.7703 17.3555C26.7297 17.5383 26.6078 17.848 26.3184 18.4117L26.4605 18.6555C26.5367 18.7926 26.6434 19.0516 26.6992 19.2344C26.7703 19.4629 26.8008 19.7066 26.8008 20.0215C26.8008 20.3363 26.7703 20.5648 26.7094 20.7578C26.6535 20.9102 26.5621 21.1336 26.5012 21.2555C26.4453 21.3723 26.2523 21.616 26.0746 21.7937C25.8918 21.9816 25.6328 22.1797 25.4551 22.2711C25.2875 22.3523 25.0234 22.459 24.8711 22.4996C24.7188 22.5453 24.4648 22.591 24.3125 22.6113C24.1602 22.6266 23.8402 22.6164 23.6016 22.5859C23.3629 22.5504 23.0887 22.4945 22.9922 22.459C22.8957 22.4234 22.7281 22.3574 22.4336 22.2305L22.1594 22.6012C22.007 22.7992 21.7176 23.1293 21.5094 23.3273C21.3062 23.5254 21.0117 23.7844 20.8594 23.9012C20.707 24.023 20.4531 24.2008 20.3008 24.3023C20.1484 24.3988 19.7828 24.602 19.4883 24.7492C19.1938 24.8965 18.7723 25.0742 18.5488 25.1504C18.3254 25.2215 17.9699 25.3281 17.7617 25.384C17.5535 25.4348 17.1422 25.516 16.8477 25.5617C16.5531 25.6023 16.0199 25.648 15.6543 25.6582C15.2887 25.6684 14.7758 25.6531 14.5117 25.6277C14.2477 25.6023 13.8465 25.5465 13.623 25.5059C13.3996 25.4652 12.9883 25.3687 12.709 25.2875C12.4297 25.2063 11.9523 25.0336 11.6426 24.9066C11.3328 24.7746 10.9012 24.5664 10.6777 24.4395C10.4543 24.3125 10.0684 24.0484 9.81445 23.8605C9.56055 23.6676 9.18477 23.3426 8.97656 23.1344C8.76836 22.9312 8.45859 22.5758 8.29102 22.3574C8.11836 22.134 7.9 21.8039 7.79336 21.6211C7.6918 21.4383 7.51914 21.0727 7.4125 20.8086C7.30078 20.5445 7.15859 20.0977 7.09766 19.8184C7.01133 19.4273 6.98594 19.1379 6.98086 18.5742C6.97578 18.0562 7.00117 17.7109 7.06719 17.4062C7.11289 17.1676 7.21953 16.7918 7.2957 16.5684C7.37695 16.3449 7.50391 16.0352 7.58008 15.8828C7.65625 15.7305 7.82383 15.441 7.95078 15.248C8.07266 15.0551 8.31641 14.7301 8.48398 14.5371C8.64648 14.3441 8.96133 14.0242 9.17461 13.8363C9.38789 13.6484 9.74336 13.3691 9.9668 13.2219C10.1902 13.0746 10.5813 12.8461 10.8301 12.7242C11.0789 12.5973 11.5055 12.4145 11.7695 12.3129C12.0336 12.2164 12.4449 12.0844 12.6836 12.0285C12.9223 11.9727 13.2777 11.9016 13.4707 11.8762C13.6637 11.8457 13.882 11.8102 13.9531 11.8C14.0242 11.7898 14.4812 11.7797 14.9688 11.7797ZM13.2676 13.2676C12.9578 13.3336 12.4805 13.4707 12.2012 13.5723C11.9219 13.6738 11.5004 13.8617 11.2617 13.9938C11.023 14.1258 10.6574 14.3594 10.4492 14.5168C10.241 14.6691 9.92617 14.9434 9.74844 15.1262C9.5707 15.3039 9.30664 15.6238 9.16445 15.832C9.02227 16.0402 8.81914 16.3957 8.71758 16.6191C8.61602 16.8426 8.48398 17.2184 8.42305 17.457C8.36719 17.6957 8.30625 18.0461 8.28594 18.2441C8.2707 18.4422 8.28086 18.7977 8.31641 19.0566C8.34688 19.3055 8.4332 19.6965 8.5043 19.9199C8.57539 20.1434 8.7125 20.4836 8.80898 20.6816C8.91055 20.8797 9.09844 21.1945 9.23555 21.3926C9.36758 21.5906 9.66719 21.9359 9.90078 22.1695C10.1344 22.398 10.5051 22.718 10.7285 22.8805C10.952 23.0379 11.3633 23.2867 11.6426 23.434C11.9219 23.5762 12.2875 23.7437 12.4551 23.8047C12.6227 23.8656 12.968 23.9723 13.2168 24.0383C13.4656 24.1094 13.8922 24.2008 14.1562 24.2465C14.4762 24.3023 14.9129 24.3277 15.4512 24.3277C15.9793 24.3277 16.4312 24.2973 16.7461 24.2414C17.0102 24.1906 17.4367 24.0941 17.6855 24.023C17.9344 23.952 18.3152 23.8199 18.5234 23.7285C18.7316 23.6371 19.077 23.4695 19.2852 23.3527C19.4934 23.2309 19.793 23.043 19.9453 22.9312C20.0977 22.8195 20.4074 22.5402 20.6309 22.3117C20.8543 22.0883 21.1336 21.7633 21.2453 21.5957C21.3621 21.4281 21.4992 21.1996 21.5602 21.0879C21.616 20.9762 21.7227 20.8289 21.7988 20.7578C21.9105 20.6512 21.9867 20.6309 22.2254 20.6309C22.4793 20.6309 22.5402 20.6512 22.7383 20.8137C22.8652 20.9152 23.0582 21.0473 23.1699 21.1031C23.2816 21.159 23.5203 21.2301 23.7031 21.2656C23.9621 21.3113 24.1043 21.3113 24.3633 21.2605C24.5664 21.2199 24.7797 21.1336 24.9219 21.0422C25.0438 20.9559 25.2164 20.7832 25.2977 20.6562C25.4145 20.4785 25.4551 20.3516 25.4703 20.0977C25.4906 19.8234 25.4754 19.7219 25.3687 19.4883C25.2977 19.3359 25.1605 19.1125 25.059 18.9906C24.9473 18.8637 24.8609 18.7012 24.8406 18.5844C24.8203 18.4676 24.8406 18.3203 24.8914 18.1934C24.932 18.0816 25.0285 17.8988 25.1047 17.7871C25.1758 17.6754 25.2926 17.4773 25.3586 17.3402C25.4246 17.2082 25.4957 16.9797 25.5109 16.8324C25.5363 16.6496 25.516 16.4719 25.4551 16.2637C25.3891 16.025 25.318 15.9082 25.1199 15.7152C24.9422 15.5477 24.7949 15.4563 24.607 15.4004C24.4598 15.3598 24.2668 15.3242 24.1855 15.3242C24.1043 15.3242 23.9062 15.3598 23.7539 15.4055C23.6016 15.4512 23.3934 15.5426 23.2969 15.6086C23.2004 15.6746 23.0836 15.7559 23.043 15.7914C23.0023 15.827 22.8652 15.9793 22.7383 16.1316C22.5961 16.2992 22.4234 16.4363 22.2812 16.4973C22.1543 16.5531 22.002 16.5938 21.941 16.5938C21.875 16.5938 21.743 16.5531 21.6414 16.5023C21.5161 16.4448 21.3655 16.2891 21.1895 16.0352C21.0422 15.827 20.7426 15.4715 20.5191 15.248C20.2957 15.0246 19.9148 14.6945 19.6609 14.5168C19.4121 14.3441 18.9805 14.0801 18.7012 13.943C18.4219 13.8008 17.9648 13.6129 17.6855 13.5164C17.4062 13.425 16.9492 13.3031 16.6699 13.2422C16.2738 13.1559 15.9438 13.1305 15.1719 13.1152C14.6285 13.1051 14.1004 13.1102 14.0039 13.1254C13.9074 13.1355 13.5773 13.2016 13.2676 13.2676ZM14.3594 14.4863C14.4559 14.5016 14.6184 14.5676 14.7148 14.6387C14.8113 14.7098 14.9992 14.8977 15.1363 15.0551C15.2684 15.2176 15.4664 15.5223 15.573 15.7305C15.6848 15.9387 15.832 16.284 15.898 16.4922C15.9691 16.7004 16.0504 17.0457 16.0809 17.2539C16.1164 17.4621 16.1418 17.9191 16.1418 18.2695C16.1418 18.6199 16.1316 19.016 16.1113 19.1582C16.091 19.2953 16.0301 19.5949 15.9742 19.8184C15.9184 20.0418 15.8016 20.382 15.7152 20.5801C15.6289 20.7781 15.4563 21.093 15.3293 21.291C15.2023 21.484 15.0145 21.6973 14.918 21.7633C14.7758 21.8598 14.6945 21.8801 14.5117 21.8547C14.3391 21.8344 14.2426 21.7887 14.1055 21.6465C13.9531 21.4941 13.9277 21.4332 13.9277 21.225C13.9277 21.0219 13.9633 20.9305 14.1664 20.6309C14.2984 20.4328 14.4609 20.1281 14.532 19.9453C14.598 19.7625 14.6945 19.4324 14.7402 19.209C14.791 18.9754 14.8266 18.5793 14.8266 18.2695C14.8266 17.9699 14.791 17.5586 14.7402 17.3301C14.6945 17.1066 14.5574 16.7207 14.4406 16.4668C14.3035 16.1824 14.1309 15.9234 13.9938 15.7812C13.8668 15.6543 13.7398 15.502 13.7043 15.4359C13.6738 15.375 13.6484 15.2379 13.6484 15.1312C13.6484 15.0246 13.6941 14.8723 13.7602 14.7758C13.8211 14.6844 13.943 14.5727 14.0242 14.532C14.1156 14.4914 14.2578 14.4711 14.3594 14.4863ZM12.2113 17.4062C12.3484 17.4062 12.5008 17.4367 12.5566 17.4723C12.6125 17.5129 12.6988 17.6246 12.7445 17.7262C12.7953 17.8328 12.8359 17.9598 12.8359 18.0156C12.8359 18.0715 12.8004 18.1934 12.7598 18.2797C12.7191 18.3711 12.6176 18.4879 12.5312 18.5336C12.45 18.5844 12.2875 18.625 12.1758 18.625C12.0133 18.625 11.932 18.5895 11.7797 18.4523C11.607 18.2949 11.5918 18.2543 11.5918 18.0156C11.5918 17.777 11.607 17.7363 11.7797 17.5789C11.9422 17.4316 12.0082 17.4062 12.2113 17.4062Z" fill="#8B95A1"/>
</svg>
